<?xml version="1.0" standalone="no"?>
<!DOCTYPE svg PUBLIC "-//W3C//DTD SVG 20010904//EN"
 "http://www.w3.org/TR/2001/REC-SVG-20010904/DTD/svg10.dtd">
<svg version="1.0" xmlns="http://www.w3.org/2000/svg"
 width="700.000000pt" height="700.000000pt" viewBox="0 0 700.000000 700.000000"
 preserveAspectRatio="xMidYMid meet">
<metadata>
Created by potrace 1.14, written by Peter Selinger 2001-2017
</metadata>
<g transform="translate(0.000000,700.000000) scale(0.100000,-0.100000)"
fill="#000000" stroke="none">
<path d="M2521 6803 c-41 -109 -79 -211 -86 -228 -25 -58 -135 -351 -135 -358
0 -4 -9 -26 -19 -50 -11 -23 -49 -121 -85 -217 -36 -96 -92 -245 -125 -330
-32 -85 -148 -389 -256 -675 -181 -476 -453 -1194 -509 -1340 -56 -147 -88
-231 -146 -385 -35 -91 -77 -203 -95 -250 -30 -76 -161 -423 -311 -817 -30
-79 -79 -209 -109 -290 -31 -82 -60 -157 -65 -168 -5 -11 -72 -189 -150 -395
-78 -206 -152 -402 -165 -435 -13 -33 -67 -175 -120 -315 -53 -140 -106 -282
-119 -315 -13 -33 -23 -61 -22 -63 5 -4 1678 -3 1683 1 2 3 42 105 89 228 46
123 88 233 93 244 6 11 32 81 60 155 27 74 84 225 126 335 42 110 82 216 89
235 41 111 110 286 115 293 9 9 2353 10 2361 0 7 -8 41 -96 99 -253 18 -47 36
-94 41 -105 5 -11 54 -139 109 -285 55 -146 147 -391 206 -545 59 -154 123
-324 143 -377 l36 -98 873 0 872 0 -25 68 c-36 98 -65 174 -75 197 -5 11 -63
164 -129 340 -66 176 -124 329 -129 340 -5 11 -14 36 -21 55 -7 19 -16 44 -20
55 -5 11 -45 117 -90 235 -45 118 -99 260 -120 315 -21 55 -63 165 -93 245
-30 80 -99 260 -152 400 -53 140 -113 298 -132 350 -20 52 -42 109 -49 125 -7
17 -53 138 -103 270 -49 132 -142 377 -206 545 -128 337 -177 466 -353 930
-66 173 -224 590 -352 925 -128 336 -259 682 -292 770 -33 88 -68 180 -78 205
-34 88 -174 457 -205 540 l-32 85 -874 3 -874 2 -74 -197z m957 -2126 c18 -50
37 -101 43 -112 5 -11 38 -96 73 -190 35 -93 94 -249 131 -345 36 -96 100
-263 140 -370 40 -107 112 -296 160 -420 48 -124 89 -232 91 -240 4 -13 -43
-15 -393 -13 -219 1 -506 4 -638 8 -132 4 -257 8 -277 8 -21 1 -38 4 -38 7 0
7 143 389 159 425 5 11 14 36 21 55 7 19 18 49 25 65 7 17 49 127 93 245 45
118 112 296 150 395 37 99 102 269 143 377 41 109 76 198 79 198 3 0 20 -42
38 -93z"/>
</g>
</svg>
